<?xml version="1.0" encoding="UTF-8" standalone="no"?>
<svg
   xmlns:dc="http://purl.org/dc/elements/1.1/"
   xmlns:cc="http://creativecommons.org/ns#"
   xmlns:rdf="http://www.w3.org/1999/02/22-rdf-syntax-ns#"
   xmlns:svg="http://www.w3.org/2000/svg"
   xmlns="http://www.w3.org/2000/svg"
   xmlns:sodipodi="http://sodipodi.sourceforge.net/DTD/sodipodi-0.dtd"
   xmlns:inkscape="http://www.inkscape.org/namespaces/inkscape"
   aria-hidden="true"
   focusable="false"
   data-prefix="fas"
   data-icon="globe-europe"
   class="svg-inline--fa fa-globe-europe fa-w-16"
   role="img"
   viewBox="0 0 496 496"
   version="1.1"
   id="svg22"
   sodipodi:docname="klimatklockan.svg"
   inkscape:version="1.0.1 (3bc2e813f5, 2020-09-07)"
   width="496"
   height="496">
  <metadata
     id="metadata28">
    <rdf:RDF>
      <cc:Work
         rdf:about="">
        <dc:format>image/svg+xml</dc:format>
        <dc:type
           rdf:resource="http://purl.org/dc/dcmitype/StillImage" />
        <dc:title />
      </cc:Work>
    </rdf:RDF>
  </metadata>
  <defs
     id="defs26" />
  <sodipodi:namedview
     pagecolor="#ffffff"
     bordercolor="#666666"
     borderopacity="1"
     objecttolerance="10"
     gridtolerance="10"
     guidetolerance="10"
     inkscape:pageopacity="0"
     inkscape:pageshadow="2"
     inkscape:window-width="1920"
     inkscape:window-height="1017"
     id="namedview24"
     showgrid="false"
     showguides="true"
     inkscape:guide-bbox="true"
     inkscape:zoom="1.6152344"
     inkscape:cx="128.82225"
     inkscape:cy="250.39548"
     inkscape:window-x="1352"
     inkscape:window-y="-8"
     inkscape:window-maximized="1"
     inkscape:current-layer="svg22"
     inkscape:document-rotation="0">
    <sodipodi:guide
       position="-84.198307,254.5006"
       orientation="0,-1"
       id="guide871" />
    <sodipodi:guide
       position="249.4994,448.28053"
       orientation="1,0"
       id="guide873" />
  </sodipodi:namedview>
  <path
     fill="currentColor"
     d="M 248,0 C 111,0 0,111 0,248 0,385 111,496 248,496 385,496 496,385 496,248 496,111 385,0 248,0 Z m 200,248 c 0,22.5 -3.9,44.2 -10.8,64.4 h -20.3 c -4.3,0 -8.4,-1.7 -11.4,-4.8 l -32,-32.6 c -4.5,-4.6 -4.5,-12.1 0.1,-16.7 l 12.5,-12.5 v -8.7 c 0,-3 -1.2,-5.9 -3.3,-8 l -9.4,-9.4 c -2.1,-2.1 -5,-3.3 -8,-3.3 h -16 c -6.2,0 -11.3,-5.1 -11.3,-11.3 0,-3 1.2,-5.9 3.3,-8 l 9.4,-9.4 c 2.1,-2.1 5,-3.3 8,-3.3 h 32 c 6.2,0 11.3,-5.1 11.3,-11.3 v -9.4 c 0,-6.2 -5.1,-11.3 -11.3,-11.3 h -36.7 c -8.8,0 -16,7.2 -16,16 v 4.5 c 0,6.9 -4.4,13 -10.9,15.2 l -31.6,10.5 c -3.3,1.1 -5.5,4.1 -5.5,7.6 v 2.2 c 0,4.4 -3.6,8 -8,8 h -16 c -4.4,0 -8,-3.6 -8,-8 0,-4.4 -3.6,-8 -8,-8 H 247 c -3,0 -5.8,1.7 -7.2,4.4 l -9.4,18.7 c -2.7,5.4 -8.2,8.8 -14.3,8.8 H 194 c -8.8,0 -16,-7.2 -16,-16 V 191 c 0,-4.2 1.7,-8.3 4.7,-11.3 l 20.1,-20.1 c 4.6,-4.6 7.2,-10.9 7.2,-17.5 0,-3.4 2.2,-6.5 5.5,-7.6 l 40,-13.3 c 1.7,-0.6 3.2,-1.5 4.4,-2.7 l 26.8,-26.8 c 2.1,-2.1 3.3,-5 3.3,-8 0,-6.2 -5.1,-11.3 -11.3,-11.3 H 258 l -16,16 v 8 c 0,4.4 -3.6,8 -8,8 h -16 c -4.4,0 -8,-3.6 -8,-8 v -20 c 0,-2.5 1.2,-4.9 3.2,-6.4 L 242.1,48.3 C 244,48.2 245.9,48 247.8,48 358.3,48 448,137.7 448,248 Z M 130.1,141.1 c 0,-3 1.2,-5.9 3.3,-8 l 25.4,-25.4 c 2.1,-2.1 5,-3.3 8,-3.3 6.2,0 11.3,5.1 11.3,11.3 v 16 c 0,3 -1.2,5.9 -3.3,8 l -9.4,9.4 c -2.1,2.1 -5,3.3 -8,3.3 h -16 c -6.2,0 -11.3,-5.1 -11.3,-11.3 z m 128,306.4 v -7.1 c 0,-8.8 -7.2,-16 -16,-16 h -20.2 c -10.8,0 -26.7,-5.3 -35.4,-11.8 l -22.2,-16.7 c -11.5,-8.6 -18.2,-22.1 -18.2,-36.4 v -23.9 c 0,-16 8.4,-30.8 22.1,-39 l 42.9,-25.7 c 7.1,-4.2 15.2,-6.5 23.4,-6.5 h 31.2 c 10.9,0 21.4,3.9 29.6,10.9 l 43.2,37.1 h 18.3 c 8.5,0 16.6,3.4 22.6,9.4 l 17.3,17.3 c 3.4,3.4 8.1,5.3 12.9,5.3 H 423 c -32.4,58.9 -93.8,99.5 -164.9,103.1 z"
     id="path20"
     style="opacity:1;fill:#4f5a65;fill-opacity:1" />
  <path
     style="opacity:1;fill:#ffffff;fill-opacity:1;stroke:none;stroke-width:1.16912px;stroke-linecap:butt;stroke-linejoin:miter;stroke-opacity:1"
     d="m 216.78243,83.968981 -0.72381,172.730359 84.02077,103.36327 49.09596,-37.93386 -68.93464,-80.62935 -1.5523,-157.530407 z"
     id="path30"
     sodipodi:nodetypes="ccccccc" />
</svg>
